<?xml version="1.0" standalone="no"?>
<!DOCTYPE svg PUBLIC "-//W3C//DTD SVG 20010904//EN"
 "http://www.w3.org/TR/2001/REC-SVG-20010904/DTD/svg10.dtd">
<svg version="1.0" xmlns="http://www.w3.org/2000/svg"
 width="200.000000pt" height="200.000000pt" viewBox="0 0 200.000000 200.000000"
 preserveAspectRatio="xMidYMid meet">
<metadata>
Created by potrace 1.14, written by Peter Selinger 2001-2017
</metadata>
<g transform="translate(0.000000,200.000000) scale(0.100000,-0.100000)"
fill="#000000" stroke="none">
<path d="M537 1450 c-3 -11 5 -40 19 -66 13 -25 24 -50 24 -56 0 -6 8 -17 18
-25 9 -8 11 -11 3 -7 -9 5 -12 3 -7 -5 10 -16 61 -41 93 -45 16 -3 43 -9 61
-15 18 -5 33 -9 35 -9 11 4 45 -15 43 -25 -3 -23 -18 -38 -32 -33 -8 3 -14 2
-14 -3 0 -4 -18 -7 -40 -7 -22 1 -40 -2 -40 -6 0 -5 -12 -13 -26 -18 -16 -7
-24 -16 -21 -24 7 -16 -15 -28 -56 -31 -31 -2 -107 46 -107 69 0 7 20 21 45
30 25 10 45 21 45 25 0 15 -42 61 -50 56 -5 -3 -14 4 -20 15 -6 11 -8 20 -4
20 3 0 1 7 -6 15 -7 8 -9 15 -4 16 5 0 -1 4 -14 10 -34 13 -62 -5 -62 -41 0
-23 -5 -30 -19 -30 -25 0 -44 -25 -37 -48 6 -19 56 -73 135 -145 22 -21 41
-43 41 -49 0 -5 9 -8 20 -5 10 3 21 0 23 -7 3 -8 9 -7 20 3 18 14 52 8 42 -8
-3 -6 1 -13 8 -18 7 -4 21 -19 30 -33 9 -13 17 -19 17 -12 0 6 7 12 15 12 8 0
15 -4 15 -9 0 -12 76 -51 84 -44 3 4 6 2 6 -4 0 -5 6 -10 13 -11 22 -2 81 -20
119 -36 21 -9 41 -16 44 -15 9 1 33 -35 28 -42 -2 -4 -45 -6 -95 -4 -71 2 -96
-1 -110 -13 -16 -14 -16 -18 -3 -44 8 -16 19 -26 24 -23 6 4 10 -1 10 -9 0
-20 -14 -20 -45 0 -15 10 -25 12 -25 5 0 -5 -7 -8 -15 -5 -9 4 -25 -4 -40 -20
l-24 -26 21 -36 c34 -59 112 -101 217 -119 19 -3 37 -7 40 -9 3 -2 16 0 28 5
16 6 21 13 16 26 -6 18 -57 86 -100 132 -26 29 -38 70 -24 84 13 13 296 11
296 -3 0 -1 9 -3 20 -5 40 -6 62 -14 160 -55 89 -37 148 -50 162 -36 7 7 -58
76 -72 76 -12 0 -45 31 -45 43 0 10 49 -11 82 -34 16 -12 45 -25 64 -29 30 -7
39 -4 60 17 14 14 23 31 20 38 -3 8 2 19 10 25 20 17 17 38 -6 45 -11 4 -18
10 -15 15 7 11 -22 40 -41 40 -8 0 -14 4 -14 8 0 13 55 41 76 38 26 -4 54 11
54 30 0 30 -86 45 -172 31 -32 -6 -35 -5 -31 13 5 19 4 19 -35 3 -23 -8 -55
-29 -72 -46 -24 -24 -33 -28 -40 -18 -6 11 -9 9 -14 -5 -7 -24 -56 -78 -84
-93 -11 -6 -28 -8 -36 -5 -22 8 -20 34 2 34 11 0 27 9 37 20 10 11 23 20 30
20 7 0 19 18 28 40 15 39 15 41 -6 60 -11 11 -26 20 -31 20 -6 0 -24 7 -39 15
-29 15 -61 10 -51 -7 4 -6 -1 -5 -12 1 -33 19 -54 38 -54 49 0 21 -35 29 -112
27 -76 -1 -138 14 -138 34 0 20 42 33 89 26 67 -9 115 -10 129 -1 7 4 12 4 12
0 0 -4 9 1 19 10 19 17 25 56 9 56 -4 0 -7 3 -7 8 3 19 -2 32 -14 32 -8 0 -14
6 -14 14 0 11 11 14 46 11 54 -5 87 -11 101 -20 6 -4 17 -1 25 5 8 7 42 12 74
11 35 0 66 5 73 12 7 6 34 11 60 11 32 -1 52 4 60 14 10 13 10 14 1 8 -7 -4
-13 -2 -13 3 0 6 -4 11 -9 11 -5 0 -35 12 -67 27 -33 15 -61 28 -64 29 -3 0
-12 3 -20 6 -40 14 -110 27 -128 23 -11 -2 -55 -18 -98 -35 -73 -30 -154 -43
-169 -28 -3 3 -7 15 -8 27 -1 24 -24 36 -42 21 -6 -5 -16 -6 -20 -2 -5 4 -5 1
-1 -6 4 -7 1 -15 -8 -18 -9 -3 -14 -10 -11 -15 3 -4 -19 -26 -49 -48 -39 -29
-60 -39 -78 -35 -12 3 -31 7 -41 8 -10 1 -22 7 -25 12 -4 6 -15 13 -25 17 -10
4 -16 11 -13 16 3 5 -6 23 -22 40 -15 16 -35 42 -45 56 -22 30 -43 32 -50 5z
m532 -400 c23 -6 53 -21 67 -34 l27 -23 -21 -21 c-26 -26 -19 -55 20 -83 16
-12 28 -23 26 -24 -8 -9 -149 26 -198 48 -50 23 -130 89 -130 108 0 13 71 35
121 38 26 1 66 -3 88 -9z m291 -275 c22 -14 51 -63 42 -69 -13 -8 -112 47
-112 62 0 7 4 11 9 7 5 -3 12 -1 15 4 7 11 25 9 46 -4z m-473 -127 c28 -32 36
-48 23 -48 -13 0 -60 49 -60 61 0 16 16 10 37 -13z"/>
</g>
</svg>
